[img]http://img37.imageshack.us/img37/6619/intimel.jpg[/img]
[code]
Imdb: 
http://www.imdb.com/title/tt1637688/

Plot: In a future where people stop aging at 25, but are engineered to live only one more year, having the means to buy your way out of the situation is a shot at immortal youth. Here, Will Salas finds himself accused of murder and on the run with a hostage - a connection that becomes an important part of the way against the system.

Source:
R5 DVD
LINE AUDIO THNXS MiSTERE yes it is line not cam so take it or leave it

Notes:
Encoded video and added few filters so enjoy :)
Encoded by LoGiCurL

Greetz

Goes out to the people next door you know what i mean haha :D and to to the punjabi squad :P



Format                                   : AVI
Format/Info                              : Audio Video Interleave
File size                                : 1.46 GiB
Duration                                 : 1h 44mn
Overall bit rate                         : 1 994 Kbps

Video
ID                                       : 0
Format                                   : MPEG-4 Visual
Format profile                           : Advanced Simple@L5
Format settings, BVOP                    : 2
Format settings, QPel                    : No
Format settings, GMC                     : No warppoints
Format settings, Matrix                  : Default (H.263)
Codec ID                                 : XVID
Codec ID/Hint                            : XviD
Duration                                 : 1h 44mn
Bit rate                                 : 1 600 Kbps
Width                                    : 720 pixels
Height                                   : 304 pixels
Display aspect ratio                     : 2.35:1
Frame rate                               : 25.000 fps
Color space                              : YUV
Chroma subsampling                       : 4:2:0
Bit depth                                : 8 bits
Scan type                                : Progressive
Compression mode                         : Lossy
Bits/(Pixel*Frame)                       : 0.292
Stream size                              : 1.17 GiB (80%)
Writing library                          : XviD 63

Audio
ID                                       : 1
Format                                   : AC-3
Format/Info                              : Audio Coding 3
Mode extension                           : CM (complete main)
Codec ID                                 : 2000
Duration                                 : 1h 44mn
Bit rate mode                            : Constant
Bit rate                                 : 384 Kbps
Channel(s)                               : 2 channels
Channel positions                        : Front: L R
Sampling rate                            : 44.1 KHz
Bit depth                                : 16 bits
Compression mode                         : Lossy
Stream size                              : 288 MiB (19%)
Alignment                                : Aligned on interleaves
Interleave, duration                     : 35 ms (0.87 video frame)

[/code]
Screens:

[img]http://img851.imageshack.us/img851/1765/vlcsnap2011120219h01m02.png[/img]
[img]http://img205.imageshack.us/img205/8765/vlcsnap2011120219h01m25.png[/img]
[img]http://img694.imageshack.us/img694/1174/vlcsnap2011120219h03m21.png[/img]
[img]http://img403.imageshack.us/img403/7551/vlcsnap2011120219h03m28.png[/img]
[img]http://img191.imageshack.us/img191/1230/vlcsnap2011120219h03m41.png[/img]
[img]http://img9.imageshack.us/img9/1329/vlcsnap2011120219h03m51.png[/img]
